<svg width="24" height="24" viewBox="0 0 24 24" fill="none" xmlns="http://www.w3.org/2000/svg">
<path d="M20.2737 9.071C20.884 9.071 21.3787 8.57631 21.3787 7.96608V3.32542C21.3787 2.59314 20.785 1.99951 20.0528 1.99951H15.4121C14.8019 1.99951 14.3072 2.4942 14.3072 3.10443C14.3072 3.71466 14.8019 4.20935 15.4121 4.20935L16.9872 4.20935L13.182 8.01456C12.5962 8.60035 12.5962 9.5501 13.182 10.1359C13.7678 10.7217 14.7175 10.7217 15.3033 10.1359L19.1688 6.27037L19.1688 7.96608C19.1688 8.57631 19.6635 9.071 20.2737 9.071Z" fill="white"/>
<path d="M2 4.17529C2 3.62301 2.44772 3.17529 3 3.17529H9C9.55228 3.17529 10 3.62301 10 4.17529V6.17529C10 6.72758 9.55228 7.17574 9 7.17574H7C6.44772 7.17574 6 7.62345 6 8.17574V16.1753C6 16.7276 6.44772 17.1753 7 17.1753H15C15.5523 17.1753 16 16.7276 16 16.1753V14.1757C16 13.6235 16.4477 13.1753 17 13.1753H19C19.5523 13.1753 20 13.623 20 14.1753V20.1753C20 20.7276 19.5523 21.1757 19 21.1757H3C2.44772 21.1757 2 20.728 2 20.1757V4.17529Z" fill="white"/>
</svg>
