<svg fill="none" height="34" viewBox="0 0 28 34" width="28" xmlns="http://www.w3.org/2000/svg" xmlns:xlink="http://www.w3.org/1999/xlink"><filter id="a" color-interpolation-filters="sRGB" filterUnits="userSpaceOnUse" height="32.4261" width="20.5391" x="3.73438" y=".735352"><feFlood flood-opacity="0" result="BackgroundImageFix"/><feColorMatrix in="SourceAlpha" result="hardAlpha" type="matrix" values="0 0 0 0 0 0 0 0 0 0 0 0 0 0 0 0 0 0 127 0"/><feOffset dy="1.89684"/><feComposite in2="hardAlpha" operator="out"/><feColorMatrix type="matrix" values="0 0 0 0 0 0 0 0 0 0 0 0 0 0 0 0 0 0 1 0"/><feBlend in2="BackgroundImageFix" mode="normal" result="effect1_dropShadow_465_4195"/><feBlend in="SourceGraphic" in2="effect1_dropShadow_465_4195" mode="normal" result="shape"/><feColorMatrix in="SourceAlpha" result="hardAlpha" type="matrix" values="0 0 0 0 0 0 0 0 0 0 0 0 0 0 0 0 0 0 127 0"/><feOffset dx="-2" dy="-3"/><feComposite in2="hardAlpha" k2="-1" k3="1" operator="arithmetic"/><feColorMatrix type="matrix" values="0 0 0 0 0 0 0 0 0 0 0 0 0 0 0 0 0 0 0.25 0"/><feBlend in2="shape" mode="normal" result="effect2_innerShadow_465_4195"/></filter><g filter="url(#a)"><path d="m20.7875 21.3651c2.963-2.9631 2.963-7.7671 0-10.7302l-7.1534-7.15338c-1.9754-1.97536-5.17809-1.97536-7.15345 0s-1.97536 5.17806 0 7.15338l5.36505 5.3651-5.36505 5.3651c-1.97536 1.9753-1.97536 5.178 0 7.1534 1.97536 1.9753 5.17805 1.9753 7.15345 0z" fill="#fff"/><path d="m21.2346 21.8122c3.2099-3.21 3.2099-8.4144 0-11.6243l-7.1534-7.15347c-2.2223-2.222276-5.82535-2.222277-8.04764 0-2.22228 2.22228-2.22228 5.82532 0 8.04757l4.91794 4.918-4.91794 4.918c-2.22228 2.2223-2.22228 5.8253 0 8.0476 2.22228 2.2222 5.82534 2.2222 8.04764 0z" stroke="#000" stroke-width="1.26456"/></g></svg>