<svg width="109" height="57" viewBox="0 0 109 57" fill="none" xmlns="http://www.w3.org/2000/svg">
<path d="M3 17C3 12.5817 6.58172 9 11 9H93C99.5924 9 103.355 16.5261 99.4 21.8L94.6 28.2C92.4667 31.0444 92.4667 34.9556 94.6 37.8L99.4 44.2C103.355 49.4739 99.5924 57 93 57H11C6.58172 57 3 53.4183 3 49V17Z" fill="black"/>
<path d="M3 11C3 6.58172 6.58172 3 11 3H93C99.5924 3 103.355 10.5261 99.4 15.8L94.6 22.2C92.4667 25.0444 92.4667 28.9556 94.6 31.8L99.4 38.2C103.355 43.4739 99.5924 51 93 51H11C6.58172 51 3 47.4183 3 43V11Z" fill="#C6445F"/>
<path fill-rule="evenodd" clip-rule="evenodd" d="M11 0H93C102.064 0 107.239 10.3484 101.8 17.6L97 24C95.6667 25.7778 95.6667 28.2222 97 30L101.8 36.4C107.239 43.6516 102.064 54 93 54H11C4.92487 54 0 49.0751 0 43V11C0 4.92487 4.92487 0 11 0ZM11 3C6.58172 3 3 6.58172 3 11V43C3 47.4183 6.58172 51 11 51H93C99.5924 51 103.355 43.4739 99.4 38.2L94.6 31.8C92.4667 28.9556 92.4667 25.0444 94.6 22.2L99.4 15.8C103.355 10.5261 99.5924 3 93 3H11Z" fill="black"/>
</svg>
